<svg width="30" height="30" viewBox="0 0 30 30" fill="none" xmlns="http://www.w3.org/2000/svg">
<path d="M21.6709 0H8.04337C3.60818 0 0 3.60818 0 8.04337V21.6711C0 26.106 3.60818 29.7142 8.04337 29.7142H21.6711C26.106 29.7142 29.7142 26.106 29.7142 21.6711V8.04337C29.7142 3.60818 26.106 0 21.6709 0ZM27.9723 21.6711C27.9723 25.1455 25.1455 27.9723 21.6709 27.9723H8.04337C4.56872 27.9723 1.74197 25.1455 1.74197 21.6711V8.04337C1.74197 4.56872 4.56872 1.74197 8.04337 1.74197H21.6711C25.1455 1.74197 27.9723 4.56872 27.9723 8.04337V21.6711Z" fill="url(#paint0_linear_1376_1883)"/>
<defs>
<linearGradient id="paint0_linear_1376_1883" x1="14.8571" y1="29.7142" x2="14.8571" y2="0" gradientUnits="userSpaceOnUse">
<stop stop-color="#000E38"/>
<stop offset="1" stop-color="#3F186A"/>
</linearGradient>
</defs>
</svg>
